# xmcd
#
# Track frame offsets:
#	150
#	13438
#	27698
#
# Disc length: 545 seconds
#
# Revision: 2
# Processed by: cddbd v1.5.2PL0 Copyright (c) Steve Scherf et al.
# Submitted via: audiograbber 1.83.01
#
DISCID=25021f03
DTITLE=Duo Sunshine - Sing ein kleines Lied
DYEAR=2004
DGENRE=Volksmusik
TTITLE0=Sing ein kleines Lied
TTITLE1=Es ist so einfach, dich zu lieben...
TTITLE2=Sing ein kleines Lied (Karaoke)
EXTD=<http://www.hit-radio24.de> \n
EXTT0=
EXTT1=
EXTT2=
PLAYORDER=
